<?xml version="1.0" encoding="UTF-8" standalone="no"?>
<!-- Created with Inkscape (http://www.inkscape.org/) -->

<svg
   width="400mm"
   height="400mm"
   viewBox="0 0 400 400"
   version="1.1"
   id="svg1"
   xml:space="preserve"
   xmlns="http://www.w3.org/2000/svg"
   xmlns:svg="http://www.w3.org/2000/svg"><defs
     id="defs1" /><rect
     style="fill:#ffffff;fill-rule:evenodd;stroke-width:0.252939"
     id="rect279"
     width="400"
     height="400"
     x="0"
     y="0"
     ry="2.8675427" /><g
     id="g270"
     transform="translate(-281.30705,481.2526)"><path
       id="path266"
       style="fill:#ff0000;stroke-width:1.70855"
       d="m 1618.4082,-1204.0586 c -26.8634,-0.7996 -51.9522,12.6131 -79.6074,38.791 -36.1897,34.2565 -56.0734,67.2514 -68.7793,114.2266 -2.8057,10.373 -5.418,16.3852 -6.8086,18.2207 -1.3906,1.8354 0.2166,1.1729 -2.6309,0.791 -0.2538,-0.034 -3.8902,-0.8706 -7.791,-2.0684 -3.9008,-1.1977 -8.5449,-2.7702 -12.8242,-4.373 -53.6055,-20.0775 -117.075,-20.059 -160.6895,1.3672 -25.1148,12.338 -46.0463,37.88026 -54.3066,65.70506 -3.5345,11.90616 -4.2229,18.64318 -3.4609,34.50782 0.6129,12.76003 2.0833,22.68085 5.0097,30.86132 20.7243,57.93233 75.3769,114.89982 152.3203,161.39258 37.2905,22.53252 77.9685,40.31269 136.3321,59.74414 8.9818,2.99039 16.9989,3.60169 23.4708,5.60257 3.2359,1.00044 8.0781,-2.25891 10.1806,-1.66533 1.0513,0.29679 1.3348,3.55749 2.1264,3.7508 0.7916,0.19331 0.8539,1.02664 3.2643,1.09624 5.9783,0.17271 19.9932,5.64468 21.7409,3.20356 1.7477,-2.44112 -1.2152,-10.7896 -0.079,-13.86948 7.6925,-20.84594 16.2608,-46.36436 30.3914,-58.27656 29.5566,-24.91654 58.9108,-35.21966 97,-34.0918 5.6414,0.16706 10.766,0.28843 14.5234,0.34961 1.8787,0.0306 3.4057,0.0469 4.5449,0.0449 0.5696,-10e-4 1.0256,-0.005 1.4981,-0.0215 0.2362,-0.008 0.4415,-0.0122 0.9023,-0.0586 0.2304,-0.0232 0.4685,-0.0258 1.2188,-0.19922 0.3751,-0.0867 0.8398,-0.14208 1.9883,-0.70703 0.2871,-0.14124 0.6245,-0.32299 1.0312,-0.59375 0.4067,-0.27077 1.437,-1.18499 1.4375,-1.18555 6e-4,-5.7e-4 1.7087,-2.41544 1.709,-2.41602 3e-4,-5.7e-4 0.918,-3.98574 0.918,-3.98633 0,-10e-4 -0.057,1.02133 -0.074,1.1543 -0.017,0.13297 -0.026,0.18977 -0.033,0.23438 -0.014,0.0892 -0.017,0.11075 -0.019,0.12304 0,0.0246 0,-0.0101 0.012,-0.0625 0.02,-0.10482 0.056,-0.29802 0.1055,-0.55273 0.099,-0.50941 0.2485,-1.27358 0.4414,-2.25391 0.3859,-1.96065 0.9452,-4.79077 1.6367,-8.27148 1.3831,-6.96142 3.2915,-16.53165 5.3906,-27.02539 23.9846,-119.89915 25.8989,-197.39254 4.9708,-259.93564 -10.9175,-32.6261 -22.4499,-52.3226 -43.9063,-74.7988 -16.6615,-17.4532 -30.9929,-28.7032 -46.1133,-35.4863 -12.5919,-5.6488 -24.8309,-8.9042 -37.041,-9.2676 z"
       transform="scale(0.26458333)" /><path
       style="fill:#ff0000;fill-opacity:1;stroke:#ff0000;stroke-width:0.854277;stroke-opacity:1"
       d="m 1644.2679,-659.09878 c -17.4448,-0.6015 -42.5507,-7.6624 -66.9154,-14.16371 -6.0373,-1.61095 -12.6959,-5.55408 -12.9511,-5.80932 -0.2553,-0.25524 -0.067,-0.9539 0.4182,-1.55256 0.4852,-0.59868 2.302,-4.54832 4.0373,-8.77699 18.7285,-45.63812 22.8622,-122.76249 68.5709,-132.76722 6.4231,-1.40589 24.2558,44.48086 62.3037,43.7352 l 22.3591,-0.43819 -0.7753,3.30268 c -17.7709,75.70176 -30.3337,111.06709 -46.1906,115.77608 -5.4727,1.62521 -9.103,1.44412 -21.5666,1.01437 z"
       id="path267"
       transform="scale(0.26458333)" /></g><path
     id="path270"
     style="fill:#ff0000;fill-opacity:1;stroke:#ff0000;stroke-width:0.639302;stroke-opacity:1"
     d="m 305.80283,106.27188 c -1.83806,0.0387 -3.52491,0.50416 -5.71333,1.2733 -11.34272,3.98661 -22.2014,15.84907 -27.05468,29.06644 -0.96012,2.6148 -1.70434,4.18862 -2.19572,4.85915 -0.49142,0.67051 -0.32748,0.5302 -0.82736,0.5302 0.50938,0 -0.12996,-0.0411 -0.74154,-0.24445 -0.61162,-0.2033 -1.45003,-0.51562 -2.42364,-0.90485 -1.94723,-0.77845 -4.44709,-1.86695 -6.9887,-3.06183 -14.50862,-6.82078 -19.2727,-8.15579 -29.07732,-8.18812 -6.89435,-0.0228 -9.1069,0.26033 -12.39096,1.5689 -5.37948,2.14352 -10.3804,6.71732 -12.89122,11.83029 -1.6356,3.33073 -1.9954,5.18761 -1.98178,10.61485 0.0185,7.40272 1.02611,10.84116 6.427,21.6731 4.82459,9.67616 8.54196,15.47146 14.31694,22.29371 17.54347,20.72487 45.75704,39.40562 74.50865,49.42697 3.79437,1.32253 5.85465,2.11481 7.97936,2.00556 1.06233,-0.0546 2.11638,-0.47161 2.89904,-1.07435 0.78266,-0.60275 1.3567,-1.30924 2.00813,-2.12494 0.86974,-1.08903 1.78293,-2.83605 3.15434,-5.47253 1.37144,-2.63649 3.03115,-5.98603 4.75268,-9.57306 3.44311,-7.17406 7.12113,-15.26938 9.19168,-20.47421 4.14957,-10.4308 7.54105,-21.33449 9.58186,-30.84049 2.09439,-9.75551 2.11106,-24.06682 0.061,-34.23616 -2.49158,-12.35919 -5.13919,-20.76299 -9.22631,-26.73323 -4.08716,-5.97027 -9.6805,-9.27831 -17.16175,-11.21691 -2.55424,-0.66185 -4.36822,-1.03608 -6.20636,-0.99734 z" /><path
     id="path275"
     style="fill:#636363;fill-opacity:1;stroke:none;stroke-width:0.452054"
     d="m 190.74837,150.70896 c -2.75153,0.20633 -4.08403,1.81597 -5.41208,2.62568 -0.70421,0.42936 -1.38827,0.93016 -1.93011,1.72238 -0.54184,0.79219 -0.77721,1.8138 -0.77721,2.63083 0,0.93903 0.15476,1.53387 0.35243,2.56368 0.19767,1.02981 0.46288,2.2601 0.75292,3.51451 0.5801,2.50884 1.17959,4.92972 1.73117,6.37636 0.15626,0.40992 0.29279,0.83489 0.70382,1.41076 0.41119,0.57607 1.36623,1.25923 2.23657,1.38906 1.74064,0.25969 2.41525,-0.30938 3.72224,-0.81598 1.22687,-0.47551 2.27449,-1.00814 3.14762,-1.64589 0.43656,-0.31888 0.83854,-0.63519 1.24645,-1.22058 0.20394,-0.2927 0.42725,-0.66926 0.53845,-1.25058 0.0503,-0.26315 0.0438,-0.58734 0.003,-0.91416 2.6e-4,-0.0201 -1.6e-4,-0.0114 0,-0.0475 0.005,-0.15754 0.0188,-0.43556 0.0367,-0.77722 0.036,-0.68326 0.0884,-1.63721 0.11938,-2.68872 0.0619,-2.10301 0.13004,-4.46056 -0.43873,-6.55309 -0.52631,-1.93625 -1.09665,-3.36198 -2.04793,-4.52065 -0.95131,-1.15866 -2.60871,-1.90301 -3.98425,-1.79988 z m 5.93813,15.24299 c 0.51945,0.84056 0.37216,0.9176 0.36486,1.01854 -0.0604,-0.35269 -0.1746,-0.71072 -0.36486,-1.01854 z" /><path
     id="path276"
     style="fill:#636363;fill-opacity:1;stroke:none;stroke-width:0.452054"
     d="m 194.59724,168.77813 c -0.34123,0.0225 -0.60505,0.11022 -0.91829,0.16383 -0.62651,0.10718 -1.26264,0.27236 -1.89706,0.4723 -0.63439,0.19998 -1.25466,0.43109 -1.83349,0.70229 -0.5788,0.27122 -1.0682,0.38012 -1.81588,1.28106 -0.61005,0.73506 -0.92631,2.03909 -0.83511,2.94245 0.0912,0.90337 0.34113,1.66815 0.70281,2.73215 0.6504,1.91346 2.10826,5.11897 3.58945,8.1907 0.74059,1.53588 1.47664,3.0045 2.10478,4.18529 0.31407,0.59039 0.60016,1.10754 0.85884,1.54358 0.25871,0.436 0.40008,0.72252 0.83304,1.20094 1.19068,1.31575 2.26066,1.63917 3.84368,1.63917 1.24664,0 2.37522,-0.2745 3.42874,-0.63148 0.52676,-0.17849 1.00904,-0.37023 1.5136,-0.66506 0.25228,-0.14742 0.51401,-0.30945 0.83458,-0.6315 0.32059,-0.32203 0.86145,-0.89882 0.86145,-2.02208 0,-0.88038 -0.10501,-0.7683 -0.15245,-0.92192 -0.0474,-0.15364 -0.0961,-0.29056 -0.15296,-0.44545 -0.11366,-0.30977 -0.25902,-0.679 -0.43616,-1.1126 -0.35425,-0.86717 -0.83079,-1.97903 -1.35599,-3.1569 -1.01013,-2.26547 -2.72381,-6.2942 -3.76719,-8.85838 -0.55145,-1.3552 -1.11027,-2.60173 -1.59681,-3.57497 -0.24329,-0.48662 -0.46334,-0.89916 -0.69247,-1.27125 -0.11457,-0.18605 -0.22508,-0.35885 -0.39688,-0.57258 -0.17179,-0.21373 -0.14234,-0.56277 -1.33739,-0.96118 -0.62325,-0.20775 -1.04163,-0.25074 -1.38284,-0.22841 z" /><path
     id="path277"
     style="fill:#636363;fill-opacity:1;stroke:none;stroke-width:0.452054"
     d="m 203.08507,190.34116 c -1.32908,0.16635 -2.51428,0.89853 -3.49382,1.7167 l -1.48828,1.24333 a 2.3463951,2.3463951 0 0 0 -0.46096,3.082 l 2.35852,3.6163 c 1.34372,2.06047 3.30497,4.83756 4.51652,6.38204 0.60777,0.77478 1.21237,1.47264 1.75443,2.02726 0.27101,0.27734 0.51929,0.51562 0.802,0.74364 0.14137,0.11401 0.28617,0.22625 0.51057,0.35605 0.22389,0.12951 0.46416,0.3742 1.33532,0.3669 1.22793,-0.008 1.29138,-0.27427 1.73167,-0.48525 0.44117,-0.21137 0.8961,-0.46947 1.34874,-0.7679 l 1.30898,-0.86299 a 2.3463951,2.3463951 0 0 0 -0.61804,-4.20595 l -0.0465,-0.014 c 0.0932,-0.097 0.18794,-0.17439 0.27803,-0.29922 0.65704,-0.91067 0.51046,-1.95823 0.35449,-2.47581 -0.31195,-1.03518 -0.74748,-1.61716 -1.49035,-2.82414 -1.32747,-2.15683 -2.41591,-3.78274 -3.50107,-5.02811 -1.08519,-1.24537 -2.24936,-2.23732 -3.82508,-2.53111 -0.47268,-0.0881 -0.93157,-0.0957 -1.37462,-0.0403 z" /><path
     id="path278"
     style="fill:#636363;stroke-width:0.159826"
     d="m 264.64025,63.9042 c -1.92529,-0.222779 -3.5819,0.08046 -4.96689,1.390332 -1.24066,1.173348 -1.01915,2.854458 -1.59753,4.653016 -0.20592,0.640371 -0.38753,1.181232 -0.4582,1.79869 -0.0707,0.617458 -0.89411,0.7629 -0.77716,1.15144 -0.0326,-0.108347 0.10213,0.443945 0.20981,1.017006 0.10769,0.573034 0.23175,1.288917 0.34261,1.987973 0.22889,1.443408 -0.22444,2.161249 -0.12493,2.476632 l 0.21952,0.695749 c 0.10618,0.33655 0.51954,0.783113 0.97925,1.383426 0.45974,0.60034 3.0181,2.854828 3.59005,2.854828 0.22381,0 -0.8197,-1.845283 -0.20264,-2.226442 0.46199,-0.285327 0.72644,-0.710115 0.89916,-1.080029 0.4926,0.230796 0.81515,0.195315 1.12707,0.24339 0.2422,0.03733 0.47789,0.07154 0.67387,0.09819 0.19595,0.02664 0.14253,0.04482 0.57152,0.06099 h 0.003 c 0.75536,0.02768 1.50188,-0.416427 1.82779,-0.774118 0.32592,-0.35769 0.42963,-0.627538 0.51366,-0.844894 0.16809,-0.434763 0.21082,-0.733345 0.26562,-1.099687 0.10959,-0.732526 0.18177,-1.674151 0.26355,-3.061309 v 0 c 0.10343,-1.75432 0.10568,-3.674586 0.0331,-5.301482 -0.0363,-0.813515 -0.0902,-1.549586 -0.16846,-2.182284 -0.0782,-0.632698 -0.0172,-0.987187 -0.47696,-1.876372 -0.54435,-1.052592 -1.5916,-1.231424 -2.74643,-1.365038 z" /><path
     id="path279"
     style="fill:#636363;fill-opacity:1;stroke:none;stroke-width:0.113014"
     d="m 257.87708,79.057522 c -0.27202,0 -0.43283,0.196374 -0.4935,0.303848 -0.0607,0.107473 -0.0836,0.194124 -0.10541,0.288369 -0.0438,0.188436 -0.0659,0.403781 -0.0816,0.663522 -0.0315,0.519483 -0.027,1.202981 0.005,1.947677 0.0634,1.489393 0.23013,3.192145 0.49352,4.229206 0.12687,0.499533 0.41368,1.092491 0.74724,1.663965 0.33356,0.5715 0.69318,1.094369 1.06196,1.427824 0.12874,0.116443 0.25643,0.220742 0.37102,0.303874 0.0573,0.04154 0.11015,0.07771 0.16846,0.111098 0.0583,0.03336 0.0579,0.09456 0.31626,0.09456 0.26932,0 0.42664,-0.138086 0.53951,-0.25527 0.11287,-0.117184 0.19682,-0.247174 0.2739,-0.393276 0.15412,-0.292153 0.27421,-0.649156 0.34105,-1.033013 0.0591,-0.339513 0.0803,-0.678365 0.0403,-1.223169 -0.04,-0.54483 -0.13584,-1.317704 -0.30851,-2.625169 -0.10853,-0.821664 -0.20709,-1.577896 -0.27855,-2.134235 -0.0357,-0.278157 -0.0648,-0.506545 -0.0847,-0.667147 -0.01,-0.0803 -0.0177,-0.143828 -0.0228,-0.18706 -0.003,-0.0217 -0.004,-0.03805 -0.005,-0.04755 0,-0.0095 0,-0.04887 0,0.0254 -2.1e-4,-0.16592 -0.0837,-0.300699 -0.15502,-0.373618 -0.0715,-0.07303 -0.13631,-0.107527 -0.19534,-0.133324 -0.11811,-0.05162 -0.22191,-0.06615 -0.33489,-0.06615 h 0.003 c -0.10044,0 -0.58431,-0.187801 -0.96324,-0.479557 -0.37894,-0.291782 -0.67633,-0.712443 -0.69609,-0.791157 -0.0295,-0.117475 -0.0684,-0.221059 -0.12867,-0.324538 -0.0301,-0.05175 -0.0635,-0.104087 -0.1261,-0.164862 -0.0625,-0.06075 -0.16695,-0.160178 -0.38137,-0.160178 z" /><path
     style="fill:#000000;stroke-width:2.99019"
     d="M 159.02265,327.87133 C 146.78314,326.78362 118.891,320.51328 105.39403,315.8153 82.86896,307.97484 66.82309,297.87359 50.22137,281.08277 36.72297,267.43067 28.86244,255.6251 24.13098,241.89812 c -2.79239,-8.10123 -3.10711,-10.2222 -2.71955,-18.32816 0.78382,-16.39413 8.63184,-28.16475 23.47517,-35.20853 9.35475,-4.43921 20.57428,-6.82206 34.62683,-7.35422 5.93618,-0.22487 11.50514,-0.70593 12.37541,-1.06918 0.87026,-0.36325 4.6678,-5.68797 8.43897,-11.83269 9.91855,-16.16126 19.58177,-23.71373 34.21128,-26.73852 14.86226,-3.07287 33.89948,3.17786 43.74549,14.36353 3.88348,4.41185 4.32247,4.65552 4.306,2.39015 -0.0996,-13.67725 5.07734,-28.00959 13.28757,-36.78703 10.17708,-10.8801 24.91283,-15.13574 44.23334,-12.77445 6.15896,0.75272 11.41622,1.15045 11.68286,0.88381 1.12804,-1.12805 -1.02316,-3.61358 -5.46966,-6.31979 -8.62132,-5.24704 -11.22236,-16.24631 -5.68184,-24.02726 2.706,-3.8002 5.87928,-5.25051 11.48831,-5.25051 3.73116,0 4.06373,-0.26642 5.24288,-4.20226 1.29134,-4.31012 3.65721,-6.34647 7.37348,-6.34647 2.79828,0 3.49452,2.60927 3.31445,12.42119 -0.0822,4.48188 0.17433,9.95411 0.5699,12.16057 0.49018,2.73321 0.1516,5.49863 -1.06236,8.67735 -1.5479,4.05311 -1.58659,4.94437 -0.29453,6.78884 1.46953,2.09804 1.51734,2.09059 4.03335,-0.62986 4.9211,-5.32098 17.16094,-13.07699 23.94233,-15.17156 14.68058,-4.53436 32.10579,-1.58441 43.18212,7.31035 15.91167,12.77778 23.87469,35.22528 23.98087,67.60115 0.0631,19.25641 -2.31064,29.96395 -11.82701,53.3484 -6.75059,16.58814 -25.57162,46.6107 -31.90003,50.88563 -4.87001,3.28974 -8.83664,2.72929 -25.55226,-3.6103 -17.08831,-6.48094 -32.48596,-14.27726 -46.70653,-23.649 -10.78322,-7.10642 -27.19593,-20.35359 -33.14865,-26.75523 -1.40653,-1.51262 -3.27471,-2.75023 -4.15149,-2.75023 -0.87678,0 -2.65308,-0.99478 -3.94729,-2.21062 l -2.3531,-2.21064 0.94137,4.05667 c 2.39042,10.30102 0.18569,41.90898 -4.24033,60.7932 -4.3643,18.6206 -15.77316,49.21796 -20.38759,54.67727 -2.85474,3.37745 -7.19321,3.99026 -20.11795,2.84161 z m 20.13866,-6.92214 c 3.0978,-5.52919 8.19731,-18.60242 13.04766,-33.4495 7.30145,-22.34988 10.98462,-47.52958 10.21132,-69.80877 -0.41868,-12.06231 -0.78627,-14.31255 -2.89564,-17.72555 -3.91828,-6.33992 -5.04929,-3.43447 -2.9575,7.59754 2.11523,11.15544 3.22507,21.7118 1.96724,18.71147 -1.01849,-2.42938 -5.44011,-25.48022 -5.40273,-28.16544 0.0149,-0.98646 0.70209,-2.17321 1.52975,-2.63717 2.37301,-1.3303 -7.37474,-20.35871 -10.42922,-20.35871 -1.35802,0 -2.96017,-1.24568 -4.11366,-3.19842 -1.03915,-1.75916 -4.46436,-6.23368 -7.61156,-9.94343 -3.14721,-3.70975 -5.72218,-7.11621 -5.72218,-7.56994 0,-1.61623 9.68026,8.67729 13.36504,14.21175 2.74075,4.11656 4.06308,5.31694 4.91668,4.46333 1.56579,-1.56575 -2.54925,-9.21146 -8.6336,-16.0412 -5.86771,-6.58658 -16.85588,-12.02568 -27.66162,-13.69238 -6.63284,-1.02303 -8.87235,-0.93949 -14.63833,0.54613 -14.8367,3.82275 -22.4726,9.80286 -31.70911,24.83326 -3.47834,5.66019 -7.18059,11.06627 -8.22724,12.01348 -1.43138,1.29538 -4.82979,1.85445 -13.71218,2.25589 -14.83377,0.67037 -24.73725,2.71434 -34.13105,7.04423 -20.15576,9.29037 -28.34921,33.48283 -18.3089,54.05983 7.96568,16.32515 17.05497,28.14776 31.10231,40.45539 25.83255,22.63323 63.47439,35.66534 116.14647,40.21142 0.90848,0.0783 2.6491,-1.63755 3.86805,-3.81321 z m -3.93754,-2.02164 c 0,-2.12722 2.10338,-10.55304 4.67414,-18.724 7.48708,-23.79687 12.67485,-48.67043 14.97909,-71.81944 l 0.73502,-7.3841 0.91772,4.74693 c 2.06096,10.66012 -4.70653,46.51929 -13.97564,74.05329 -2.8713,8.52931 -5.22058,17.19246 -5.22058,19.25141 0,2.05896 -0.47469,3.74357 -1.05488,3.74357 -0.58018,0 -1.05487,-1.74044 -1.05487,-3.86766 z m -30.49839,-7.76367 c -6.04078,-2.29997 -11.22284,-4.42136 -11.5157,-4.71419 -1.25789,-1.25788 2.02098,-0.29423 10.90259,3.20465 5.21764,2.0554 11.42405,4.00772 13.79204,4.3385 5.48907,0.76677 10.22613,-1.57449 12.03851,-5.94991 0.73998,-1.78652 1.5828,-3.01085 1.87288,-2.72078 1.18982,1.18983 -2.36997,7.13062 -5.1271,8.5564 -4.72026,2.44093 -10.20158,1.76344 -21.96322,-2.71467 z m -8.61405,-6.31456 C 108.90535,297.62974 85.77976,287.5659 71.84625,276.8823 61.08581,268.63165 49.84978,255.82655 45.64569,247.02286 c -3.41228,-7.14554 -3.85758,-9.01366 -3.81419,-16.00155 0.0801,-12.90294 5.79827,-21.3917 18.41114,-27.3316 5.21531,-2.45608 7.02814,-2.7281 17.93286,-2.69087 11.82479,0.0404 14.42303,0.55298 26.53865,5.2357 1.40494,0.54302 2.09795,-0.52364 3.5214,-5.42007 4.6862,-16.11997 16.20318,-30.80444 28.95416,-36.91731 4.76726,-2.28543 6.75018,-2.66196 11.66961,-2.21588 16.34653,1.48223 30.68736,17.44223 35.31881,39.30641 1.8442,8.70621 2.06855,29.15821 0.43714,39.85283 -1.87901,12.31788 -8.02071,38.74839 -11.60194,49.92817 -2.62617,8.19841 -4.1613,11.21979 -7.29066,14.34914 -3.53261,3.53262 -4.52287,3.95579 -9.09879,3.88815 -2.82411,-0.0419 -12.05477,-1.91223 -20.51255,-4.15666 z m 25.81892,1.49069 c 4.49775,-1.72593 8.5851,-12.69069 13.84452,-37.13932 8.95182,-41.61275 8.63665,-64.32549 -1.16133,-83.69409 -3.12508,-6.17764 -11.43332,-14.77324 -17.04806,-17.63763 -11.55428,-5.89456 -20.22197,-3.66451 -32.007,8.23489 -8.49304,8.57542 -13.22229,16.77132 -15.68065,27.17479 -1.80724,7.64807 -3.09781,8.45907 -9.28678,5.8359 -16.76489,-7.10571 -39.35321,-5.38982 -48.42129,3.67826 -9.14119,9.14119 -10.88606,20.88573 -4.90723,33.03042 8.2976,16.85483 28.56717,33.99957 52.65085,44.53398 22.74566,9.94911 55.64517,18.42788 62.01697,15.9828 z M 38.46388,244.00944 c -2.63746,-5.37128 -3.00953,-7.30853 -3.00101,-15.62533 0.009,-8.20442 0.38687,-10.21018 2.78686,-14.76819 2.84397,-5.40121 6.77176,-9.77102 7.83077,-8.71201 0.3262,0.32623 -1.04445,2.73848 -3.04593,5.36054 -6.52926,8.5538 -7.789,22.98799 -2.95915,33.90661 3.22049,7.28051 1.98181,7.15627 -1.61154,-0.16147 z M 31.7611,210.15307 c 0,-1.47195 5.07953,-8.68202 7.71981,-10.95776 8.67744,-7.47943 25.55452,-12.47866 42.1272,-12.47866 11.6476,0 14.15257,-0.61554 18.456,-4.5352 1.30539,-1.18899 2.37346,-1.68709 2.37346,-1.10691 0,1.29619 -3.93563,4.96061 -7.05105,6.56518 -1.26727,0.65267 -6.0142,1.19027 -10.54873,1.19464 -21.72484,0.0209 -41.51036,7.09802 -49.6052,17.74316 -1.90932,2.51086 -3.47149,4.11985 -3.47149,3.57555 z m 64.5574,-10.76364 c -5.91648,-1.4012 -5.26318,-2.35238 1.34999,-1.96554 6.2985,0.36842 6.30948,0.3639 8.06855,-3.32312 10.10809,-21.18666 11.81971,-24.15721 16.44924,-28.54815 5.16621,-4.89991 5.10749,-4.7225 -1.21369,3.66603 -4.47383,5.93705 -8.08478,12.75292 -11.27846,21.28881 -3.51999,9.408 -5.52703,10.74076 -13.37563,8.88197 z m 7.20929,-23.45972 c -0.0721,-1.55872 4.09145,-7.46507 9.88566,-14.02399 10.99523,-12.4464 27.52091,-17.96097 41.06118,-13.70204 3.23906,1.01882 6.69545,2.74329 7.68087,3.83214 2.2261,2.45982 2.22368,2.45973 -5.42857,-0.24161 -8.78276,-3.10041 -19.69178,-2.44591 -28.41022,1.70447 -6.20772,2.95518 -14.77629,10.54434 -21.42618,18.97715 -1.83005,2.32072 -3.34327,3.87496 -3.36274,3.45385 z m 217.72213,85.29123 c 9.05678,-9.72747 27.53337,-44.05731 33.07458,-61.45316 5.36162,-16.83202 6.91867,-27.446 6.17023,-42.06014 -1.77907,-34.73737 -12.30789,-57.08213 -31.18185,-66.17572 -5.93864,-2.86125 -8.37337,-3.40167 -16.95567,-3.76354 -15.00594,-0.63273 -23.8924,2.82621 -37.48479,14.59033 -5.68013,4.91611 -7.01833,5.12432 -9.41604,1.46496 -1.64317,-2.50779 -1.65274,-3.05063 -0.12141,-6.87804 0.91443,-2.28543 1.66264,-5.59339 1.66264,-7.35099 0,-3.04976 -2.57186,-9.42012 -3.8031,-9.42012 -0.32139,0 -0.25118,3.11171 0.15608,6.91494 0.67178,6.27297 0.52039,7.1493 -1.63082,9.43913 -4.87081,5.18475 -12.96884,3.89227 -16.32931,-2.60619 -3.75071,-7.25307 0.30055,-14.80276 7.94332,-14.80276 1.13305,0 2.0601,-0.71202 2.0601,-1.58232 0,-2.85022 -6.91634,-1.9705 -10.63578,1.35282 -6.86072,6.13007 -4.7405,17.16453 4.30533,22.40655 4.73198,2.74212 7.20837,6.71471 6.05666,9.71596 -0.52101,1.35773 -1.8081,1.36269 -10.44524,0.0404 -13.43782,-2.05746 -25.4336,-1.28934 -32.69483,2.09346 -12.33633,5.74718 -18.00062,11.93726 -22.72132,24.83039 -2.95425,8.06858 -3.23556,13.92909 -0.66857,13.92909 0.96962,0 2.63106,0.78561 3.69204,1.74579 1.85048,1.67465 1.92909,1.4602 1.92909,-5.26306 0,-12.88605 7.21641,-25.55902 18.35358,-32.23121 7.45589,-4.46677 8.93786,-3.7139 1.75826,0.89323 -10.77637,6.91518 -16.36863,16.25833 -18.59554,31.06811 l -1.44187,9.58891 3.23826,10.49739 c 3.34228,10.83469 6.39557,17.05482 14.40551,29.34681 3.95826,6.0743 4.44832,7.39181 3.27527,8.80527 -1.18662,1.42979 -0.64899,2.31447 3.84545,6.32781 26.68203,23.82584 51.57486,38.84652 83.81297,50.57399 10.41549,3.7889 13.2544,3.47424 18.38656,-2.03797 z m -11.57673,-0.13635 c -2.29495,-1.40566 -10.34364,-5.04397 -17.88598,-8.08514 -26.45636,-10.66754 -51.16003,-24.89947 -64.4676,-37.14014 -4.33539,-3.98781 -7.64066,-7.4924 -7.34502,-7.78804 0.29573,-0.29573 3.75769,2.30792 7.69349,5.78566 14.23693,12.57994 37.55745,26.23847 60.9545,35.70033 15.26103,6.17157 20.69301,8.753 24.18507,11.49336 3.45137,2.70843 1.27056,2.73208 -3.13446,0.0341 z m 11.37668,-6.06482 c 7.5976,-11.62494 14.13057,-23.11202 18.30415,-32.18465 2.73845,-5.9529 5.17321,-10.62923 5.41057,-10.39186 1.58125,1.58124 -15.18921,34.09884 -22.23015,43.10395 -2.10315,2.68982 -3.30757,2.26193 -1.48457,-0.52744 z m -25.11765,-8.68528 C 266.6462,235.8205 236.57909,214.70465 220.1744,193.13045 c -5.74625,-7.55707 -13.65267,-22.31585 -16.53088,-30.85789 -2.67508,-7.93929 -2.20168,-14.39923 1.60128,-21.85112 3.12247,-6.11849 6.78836,-9.53873 14.81107,-13.81865 6.1193,-3.26448 6.66163,-3.36032 16.35051,-2.88963 9.84146,0.47813 21.15177,3.43405 23.67312,6.18694 0.82871,0.9048 0.57272,1.00593 -0.99337,0.39246 -6.16409,-2.41467 -16.20542,-4.70258 -22.95981,-5.2314 l -7.63148,-0.5975 9.00816,1.98304 c 9.58153,2.10925 22.38944,7.59125 28.38103,12.14759 1.99832,1.51961 3.95127,2.76293 4.3399,2.76293 0.38864,0 1.55733,-2.25478 2.59704,-5.01066 4.60155,-12.19669 16.1775,-25.98212 25.08259,-29.87006 7.66604,-3.34695 17.42479,-3.33801 24.32361,0.0209 6.90456,3.3631 11.43296,9.86046 15.41829,22.12209 4.52242,13.91413 5.67493,22.67213 4.97481,37.80423 -0.54613,11.8038 -1.03,14.20597 -5.5245,27.42668 -9.52967,28.03196 -25.03892,56.59198 -30.43066,56.03757 -0.64052,-0.0658 -5.47031,-1.66556 -10.73289,-3.55488 z m 13.52265,-0.28108 c 4.18223,-4.69582 17.00746,-32.4726 21.97371,-47.59043 8.2683,-25.16969 9.07936,-39.12631 3.54221,-60.95434 -3.33379,-13.14228 -5.90954,-18.44009 -11.1436,-22.92023 -4.95298,-4.23955 -15.21008,-7.48525 -20.23112,-6.40185 -4.51506,0.97427 -10.23581,3.94556 -14.49231,7.52718 -5.36713,4.51614 -12.24663,14.4887 -14.23456,20.63453 -2.987,9.23445 -3.02476,9.2419 -15.44488,3.04407 -12.28101,-6.12843 -20.70102,-8.58376 -29.43618,-8.58376 -19.05531,0 -29.1304,13.90274 -23.59149,32.55423 2.07139,6.97516 10.85562,23.20935 15.99922,29.56829 17.85075,22.06856 44.70954,40.81971 73.61083,51.39057 11.20006,4.0965 11.32744,4.11289 13.44817,1.73174 z m 5.0121,2.01231 c 0,-0.52956 0.79348,-1.61431 1.76328,-2.41057 2.99905,-2.46239 10.84964,-15.32592 15.56338,-25.50121 5.51926,-11.91411 7.98721,-18.9863 11.85251,-33.96456 2.67957,-10.38346 2.98323,-13.26738 2.88778,-27.42668 -0.0586,-8.70268 -0.60076,-17.83684 -1.20463,-20.2981 -0.60387,-2.46128 -0.70649,-4.23309 -0.22815,-3.93739 1.81388,1.12105 3.217,12.3616 3.36929,26.99215 0.16535,15.88272 -1.22562,24.50195 -6.61987,41.02056 -5.09074,15.58918 -20.10702,42.59425 -25.20048,45.3202 -1.20077,0.64262 -2.18323,0.73516 -2.18323,0.20572 z m 34.18972,-52.51883 c 0.36274,-0.94526 1.85783,-8.18433 3.32243,-16.08681 3.36922,-18.17928 3.53602,-33.21094 0.53904,-48.58332 -2.17851,-11.17429 -2.26543,-14.66596 -0.20692,-8.31411 4.63467,14.30139 5.26246,35.48399 1.62696,54.89783 -1.86217,9.94406 -4.53866,19.80508 -5.37553,19.80508 -0.31101,0 -0.26881,-0.77341 0.0942,-1.71867 z m -78.83861,-65.52946 c 1.79746,-1.5955 4.99128,-5.8236 7.09733,-9.3958 4.53403,-7.69032 14.25188,-17.02363 21.37774,-20.53184 6.91801,-3.40589 18.93368,-3.49847 25.14023,-0.19377 5.7511,3.06226 12.90599,9.37849 14.82298,13.08552 2.22577,4.30417 1.08902,3.82248 -4.60645,-1.9519 -6.60261,-6.69411 -15.50608,-11.08539 -22.65222,-11.17225 -11.06639,-0.13456 -23.87499,8.63821 -32.84045,22.4929 -5.26943,8.14303 -7.5357,10.56796 -9.87645,10.56796 -1.23187,0 -0.78866,-0.8363 1.53729,-2.90091 z m 70.66746,-22.14011 c -5.8594,-9.28185 -14.6159,-14.16175 -26.59269,-14.81974 -7.69427,-0.42273 -9.22656,-0.15789 -16.4307,2.84136 -4.36978,1.81915 -10.8782,5.67108 -14.46317,8.55987 -6.91242,5.5701 -9.19426,6.72709 -5.87976,2.98131 4.27403,-4.83017 14.45013,-11.37483 21.25951,-13.67279 17.43164,-5.88269 34.29823,-0.74946 43.18322,13.14257 1.42656,2.23047 2.35639,4.29278 2.06631,4.58286 -0.29005,0.29005 -1.70432,-1.33686 -3.14272,-3.61544 z m -128.63972,98.33952 2.28068,-1.59748 -4.35707,-6.31408 c -4.60546,-6.67405 -5.52297,-7.18627 -8.70477,-4.85966 -1.93181,1.41257 -1.93358,1.54159 -0.0619,4.48322 3.32716,5.22943 6.99905,9.88545 7.79603,9.88545 0.42155,0 1.79277,-0.71887 3.04715,-1.59745 z m -8.23699,-15.88727 c 0.23922,-0.23921 -1.3024,-4.13809 -3.42619,-8.6638 -2.12378,-4.52569 -3.86141,-8.85228 -3.86141,-9.61463 0,-1.4945 -4.95552,-0.77999 -6.75023,0.9733 -0.55716,0.54431 0.85944,4.69424 3.43393,10.0596 4.21061,8.77516 4.49572,9.10462 7.27549,8.40692 1.59123,-0.39937 3.08902,-0.92199 3.32841,-1.16139 z m -11.5999,-20.61643 c 1.86268,-0.64932 3.18464,-1.71736 2.93774,-2.37347 -0.24699,-0.65607 -1.23859,-3.92235 -2.20383,-7.25838 -1.82225,-6.29824 -2.49564,-6.84087 -6.09724,-4.91337 -1.72085,0.92098 -2.02142,1.80895 -1.49805,4.42576 0.96535,4.82679 2.76718,11.30007 3.14538,11.30007 0.18121,0 1.85335,-0.53126 3.716,-1.18061 z m 66.22724,-74.1897 2.95972,-2.5841 -2.3702,-1.69292 c -1.4643,-1.04588 -2.62455,-3.28362 -3.0357,-5.85488 -0.70102,-4.38377 -1.61602,-4.84905 -6.14795,-3.12601 -7.79555,2.96385 -4.22493,14.42638 4.90208,15.73686 0.40278,0.0577 2.06419,-1.05772 3.69205,-2.47895 z m 2.79377,-12.44784 c -0.4511,-4.84375 -0.15699,-7.68547 1.1084,-10.71071 0.94735,-2.26474 2.01745,-3.82272 2.37801,-3.46216 0.36056,0.36059 0.0631,2.08637 -0.66143,3.8351 -1.36756,3.30162 -0.88495,6.38199 0.99992,6.38199 0.6358,0 1.08798,-2.84971 1.08798,-6.85666 0,-6.12678 -0.22187,-6.85668 -2.08542,-6.85668 -1.14701,0 -2.87288,1.20179 -3.83531,2.67063 -2.21268,3.377 -3.24238,16.15761 -1.55567,19.30924 2.20864,4.12688 3.19487,2.46843 2.56352,-4.31075 z"
     id="path265" /><path
     id="path272"
     style="fill:#050505;fill-opacity:1;stroke:#050505;stroke-width:0.319651;stroke-opacity:1"
     d="m 196.91078,195.59201 c -0.26064,-0.0539 -0.55554,-0.0636 -0.88212,0.0135 -0.34851,0.0822 -0.69278,0.28205 -0.93429,0.52501 -0.76275,0.76748 -0.70398,1.38335 -0.76275,2.11357 -0.0588,0.73025 -0.0413,1.59647 0.0326,2.64893 0.14777,2.10495 0.53329,4.93541 1.14567,8.43775 0.95919,5.48592 1.61118,9.94056 1.91926,12.97388 0.0274,0.26929 0.0143,0.35415 0.0362,0.60099 a 1.5163851,1.5163851 0 0 0 -1.22473,1.12603 l -0.37775,2.55695 c -0.22812,1.54367 -0.41851,4.18143 -0.45167,6.10971 -0.23968,13.93782 -5.86263,40.88273 -13.85908,65.85179 -4.72938,14.76755 -6.08973,19.37989 -5.26016,22.67459 0.0857,0.3403 0.15209,0.60533 0.23255,0.85938 0.0805,0.25404 0.0259,0.50689 0.60049,1.01544 0.28726,0.25427 0.93419,0.47269 1.40248,0.37362 0.46831,-0.0991 0.68167,-0.3069 0.82166,-0.43822 0.27999,-0.26263 0.35515,-0.41222 0.47543,-0.58394 0.69911,-0.9981 1.47979,-2.59894 2.47944,-4.82761 0.99962,-2.22867 2.16498,-5.02933 3.40289,-8.16385 2.47583,-6.26904 5.24047,-13.86744 7.50702,-20.80544 4.91953,-15.05882 8.24484,-31.12601 9.82731,-47.47307 0.5574,-5.75809 0.7829,-13.53499 0.7152,-20.59151 -0.0677,-7.05652 -0.38042,-13.23878 -1.09657,-16.32665 -0.4563,-1.96757 -1.42486,-4.00568 -2.47219,-5.63015 -0.52369,-0.81224 -1.05888,-1.51333 -1.63607,-2.06705 -0.28861,-0.27689 -0.58479,-0.52168 -0.9643,-0.72142 -0.18974,-0.0999 -0.4158,-0.19828 -0.67644,-0.25217 z" /><path
     id="path271"
     style="stroke-width:0.90411"
     d="m 141.56326,141.18396 c -3.86178,0.10822 -7.68723,0.74063 -11.34711,1.95906 -13.29698,4.42672 -19.17078,9.41694 -29.79819,25.32454 -2.107516,3.15465 -4.195396,6.09285 -5.833748,8.24963 -0.819177,1.07839 -1.529768,1.96453 -2.045362,2.55696 -0.198199,0.22772 -0.329618,0.36211 -0.451644,0.48678 -0.215318,0.0487 -0.490511,0.11266 -0.804095,0.15917 -0.729959,0.10824 -1.735111,0.23469 -2.918169,0.36587 -2.366089,0.26233 -5.453009,0.54689 -8.658886,0.78703 -19.264498,1.44306 -30.277594,4.39891 -39.994469,10.98433 -14.08766,9.54768 -20.864036,27.5837 -16.501824,43.96476 1.950429,7.32437 9.224168,20.79889 15.456429,29.14861 11.364092,15.22507 30.073546,30.7176 47.827035,39.64254 20.318863,10.2146 45.819453,16.76165 82.601673,21.34547 1.68259,0.20968 2.95447,0.37054 3.98738,0.45114 1.03288,0.0806 1.7858,0.18987 2.88509,-0.19689 0.54962,-0.19338 1.24161,-0.6467 1.64071,-1.3069 0.3991,-0.6602 0.4604,-1.32761 0.44442,-1.80557 -0.0319,-0.95593 -0.26281,-1.52466 -0.47128,-2.25155 -0.31313,-1.09174 -0.37951,-2.38959 0.41598,-6.17016 0.79552,-3.78057 2.44436,-9.79597 5.31339,-19.73936 5.41748,-18.7758 9.19141,-35.81229 11.46233,-51.78237 1.02479,-7.20684 2.25663,-15.75764 2.73318,-18.97456 0.73281,-4.94699 0.52702,-8.49427 -0.92242,-16.53181 -0.71345,-3.95629 -1.09114,-6.51012 -1.18909,-8.20931 -0.0979,-1.69918 0.0336,-2.44326 0.34882,-3.31504 0.51412,-1.42174 0.82924,-2.99048 0.51211,-4.64106 -0.31711,-1.6506 -1.04762,-3.26691 -2.25981,-5.84874 -1.56345,-3.32999 -3.37889,-6.35529 -5.1294,-8.64754 -0.84378,-1.10492 -1.66529,-2.02927 -2.51198,-2.77606 0.41503,-0.30287 0.7629,-0.684 0.93223,-1.04076 0.30605,-0.64479 0.32076,-1.13877 0.31523,-1.58129 -0.009,-0.71231 -0.12277,-0.79417 -0.19328,-0.99634 -0.0705,-0.20214 -0.14568,-0.38362 -0.23304,-0.58393 -0.17476,-0.40061 -0.39738,-0.86376 -0.66715,-1.39732 -0.53954,-1.06714 -1.26201,-2.40117 -2.05775,-3.78894 v 0 c -8.65576,-15.09533 -26.15358,-24.30936 -42.88782,-23.84039 z m 4.64002,22.55004 c 3.19445,-0.13234 6.59003,0.50488 10.59006,2.01176 10.02196,3.7755 20.63519,17.21906 24.87342,32.70137 0.82963,3.03069 1.54072,12.68671 1.63142,22.30613 0.0907,9.6194 -0.36412,19.67225 -1.22473,24.06623 -2.20276,11.24626 -4.90114,23.00853 -7.4223,32.69671 -2.52114,9.68818 -4.99578,17.50833 -6.25335,20.0396 -0.78589,1.5819 -3.07557,4.79164 -4.63177,6.41408 -1.48328,1.5464 -2.12389,2.07813 -2.71301,2.31201 -0.58912,0.23388 -1.66989,0.34106 -4.09795,0.34106 -2.55195,0 -7.84217,-0.64243 -11.10215,-1.38389 -1.79303,-0.40782 -3.4649,-0.73104 -4.77128,-0.93069 -0.65321,-0.0998 -1.20679,-0.16941 -1.69963,-0.20154 -0.24644,-0.0161 -0.46985,-0.027 -0.76171,-0.008 -0.14595,0.01 -0.30705,0.0225 -0.55605,0.0842 -0.24903,0.0617 -0.63037,0.10329 -1.19269,0.66559 -0.18807,0.18808 -0.57878,-0.20463 -0.68368,-0.51625 -0.41167,-1.22287 -0.86342,-1.22995 -1.12499,-1.40146 -0.52313,-0.34302 -0.92104,-0.48983 -1.46399,-0.69815 -1.08593,-0.41665 -2.5773,-0.8767 -4.35684,-1.3441 -8.61843,-2.26368 -29.336549,-10.07027 -37.43854,-14.10974 -21.776716,-10.85735 -41.058041,-29.99208 -46.436438,-45.23238 -1.371071,-3.88476 -1.615493,-5.96847 -1.324478,-11.61118 0.61931,-12.0073 4.908762,-18.3886 16.336486,-24.17578 2.543413,-1.28862 3.469984,-1.76037 5.618771,-2.04999 2.148814,-0.28961 5.653537,-0.30871 12.521724,-0.28421 6.445409,0.023 10.021702,0.0917 12.547044,0.39634 2.525342,0.30467 4.077097,0.81045 6.941688,1.89963 1.812475,0.68914 3.525943,1.24016 4.915453,1.59113 0.69477,0.17547 1.29755,0.30316 1.87897,0.36896 0.29069,0.0329 0.56972,0.0565 0.94258,0.0279 0.37285,-0.0286 0.94458,0.0513 1.77146,-0.77721 0.43561,-0.43648 0.46334,-0.59264 0.57827,-0.8015 0.11491,-0.20889 0.21691,-0.41955 0.32711,-0.65837 0.2204,-0.47762 0.46529,-1.06103 0.73639,-1.74408 0.54215,-1.36607 1.18311,-3.11869 1.80969,-4.97128 4.62913,-13.68684 15.02222,-26.60063 25.62791,-32.21662 3.36529,-1.78202 6.41295,-2.67367 9.60716,-2.80604 z" /><path
     id="path273"
     style="stroke-width:0.319651"
     d="m 261.56396,90.549831 c 0.0243,0.831718 0.0607,1.865974 0.0548,2.136828 -0.0109,0.492707 -0.17719,0.969354 -0.47543,1.361678 -0.72811,0.957554 -1.72006,1.883834 -3.25872,2.600352 -0.003,0 -0.005,0.0026 -0.007,0.0032 -3e-5,0 -0.76491,0.205475 -0.786,0.207221 -0.0212,0.0026 -0.0277,0.0026 -0.0336,0.0026 h -0.019 -0.0164 c -0.01,0 -0.0204,0.0026 -0.0341,0.0026 -0.0272,0.0026 -0.0647,0.0034 -0.11263,0.0061 -0.0959,0.005 -0.23191,0.01243 -0.39534,0.02064 -0.32689,0.0164 -0.76338,0.03781 -1.20819,0.05736 -0.44485,0.01958 -0.89546,0.03744 -1.26556,0.04704 -0.18507,0.0048 -0.34769,0.0071 -0.50178,0.0061 -0.0771,0 -0.14904,0 -0.24908,-0.0061 -0.10004,-0.0056 -0.0191,0.111098 -0.72295,-0.140044 l -0.003,-0.0032 c -2.22361,-0.793988 -4.10591,-2.760319 -5.00901,-5.509207 -0.85839,-2.612655 -0.5551,-4.965039 0.39224,-6.603233 0.86582,-1.49733 2.71566,-2.827576 4.99401,-3.083533 1.47204,-0.165392 1.95781,-0.100145 3.28247,-0.79375 0.009,-0.0048 0.33666,-0.254715 0.68213,-0.677995 0.40079,-0.490855 1.29479,-2.546059 1.2541,-2.908776 -0.0952,-0.849419 -0.85231,-2.36101 -1.43868,-2.796726 -1.04727,-0.778192 -1.74334,-0.837406 -2.79622,-0.907441 l -0.003,0.0026 c -0.62302,-0.04141 -1.22751,-0.02275 -1.92442,0.03307 -5.08056,0.407828 -9.5059,3.603069 -11.8241,8.285797 -0.33898,0.684742 -0.72506,1.737783 -0.85937,2.602415 -0.15552,1.001025 -0.16605,1.928628 -0.16743,3.423047 -0.003,3.016065 0.40511,4.794541 1.40714,6.875542 1.5939,3.310202 3.95089,5.948974 7.21971,8.124584 1.02341,0.68112 1.88121,1.40774 2.61019,2.06084 1.70696,1.5304 0.41588,4.34745 -1.85777,4.0535 -0.62473,-0.081 -0.64013,-0.0594 -1.54514,-0.18397 -18.14168,-2.49766 -28.95134,-1.50937 -38.92423,3.8649 -10.6022,5.71342 -16.79855,13.43504 -21.00027,26.06249 -0.73805,2.21806 -1.29902,4.34094 -1.65105,6.21615 -0.37309,1.98731 -0.58473,3.18643 -0.30541,4.9077 0.18074,1.11395 0.52157,1.99666 1.22783,2.8846 0.64714,0.81362 1.72198,1.64692 3.20082,1.64692 0.74083,0.0611 1.40827,0.47144 1.79731,1.10485 0.10062,0.0717 0.19016,0.1062 0.2925,0.18396 0.2122,0.16127 0.39336,0.31703 0.57309,0.47956 0.44683,0.40413 0.72011,0.96533 0.76274,1.56631 0.15147,2.13997 0.70749,4.24545 1.86499,7.95766 4.38735,14.07057 6.72995,19.08365 14.99963,32.08486 0.89133,1.40134 1.05624,3.18889 1.73641,4.29402 0.31345,0.5093 1.81168,3.65639 1.81168,3.65639 -0.19087,0.35528 -0.25249,0.44481 -0.19016,0.31316 -0.32644,0.68963 -0.36568,0.62957 -0.33591,0.55345 0.0298,-0.0762 -0.0677,0.15275 -0.0677,1.02939 0,0.7507 0.0949,1.00632 0.13332,1.09916 0.0384,0.0929 0.0669,0.0778 0.37619,0.59584 0.21769,0.36468 0.3779,0.5696 0.63407,0.88469 0.47614,0.58563 1.03762,1.18285 1.76165,1.90841 1.43581,1.43886 3.39468,3.23723 5.71283,5.26325 4.6347,4.05064 10.66398,8.96948 16.40573,13.2824 17.75087,13.33351 35.73417,23.38341 56.857,31.77842 6.4295,2.55533 12.43655,4.73636 15.51273,5.38675 l -0.47593,-0.0501 c 0.18917,2.6e-4 0.37764,0.0235 0.5612,0.0693 l -0.0822,-0.0191 c 3.14997,0.66545 5.20031,0.73516 8.18505,-0.80253 3.9338,-2.0266 5.31516,-7.45292 10.35545,-15.05903 l 2.99463,-4.51911 c 0,0 2.26496,0.52748 2.26499,0.0238 v -2.33009 -2.08411 c -0.0488,-0.30993 -0.14324,-0.61349 -0.29922,-0.88573 -0.40716,-0.7107 -0.41201,-1.5828 -0.013,-2.29805 0.20521,-0.36772 0.31718,-0.78665 0.32557,-1.20768 l -0.0863,-5.38107 -0.0858,-5.35936 c -0.0315,-0.48047 -0.19896,-0.95148 -0.48059,-1.34204 -0.52493,-0.72803 -0.58602,-1.69254 -0.15711,-2.48098 l 0.47956,-0.88057 v -5.3e-4 c 0.20627,-0.37945 0.31533,-0.81144 0.31369,-1.24333 l -0.0201,-5.4343 c -0.008,-2.18289 -0.019,-3.42064 -0.0977,-4.37491 -0.0214,-0.25937 -0.0328,-0.39508 -0.0852,-0.67543 -0.11676,-0.62347 -0.0589,-0.4921 -0.0553,-0.47953 0.004,0.0127 -0.0539,-0.19212 -0.43823,-0.73589 -0.17788,-0.2517 -0.89283,-0.99351 -1.85518,-1.10278 -0.97379,-0.11057 -1.79932,0.43373 -2.0407,0.64648 -0.49263,0.43424 -0.59489,0.61783 -0.58497,0.60047 0.0101,-0.0175 0.10771,-0.15594 -0.15814,0.43151 -4.49307,9.9301 -5.6583,12.44818 -6.98251,15.0921 -1.90976,3.81304 -4.24146,7.98307 -6.40167,11.52952 -2.17419,3.56943 -4.09983,6.38995 -5.25188,7.67034 -0.57735,0.64165 -1.14998,1.13915 -1.6247,1.50636 -0.58912,0.45568 -1.36027,0.60293 -2.07584,0.39636 -0.0254,-0.007 -0.0669,-0.0164 -0.1969,-0.0548 -0.99132,-0.29295 -2.32207,-0.72077 -3.81889,-1.2268 -2.99286,-1.0118 -6.65126,-2.33628 -9.72344,-3.54914 -17.17119,-6.77897 -34.39096,-17.08671 -49.76699,-29.81213 -4.73421,-3.91811 -14.81222,-14.02919 -18.05365,-18.08261 -7.58153,-9.48055 -16.83081,-26.95011 -19.04072,-35.64951 -1.98813,-7.82627 0.49737,-16.85454 6.51174,-23.18617 1.62452,-1.71016 4.42862,-3.54561 7.35201,-5.32527 1.46171,-0.88985 2.91898,-1.71778 4.19044,-2.37816 1.27145,-0.66037 2.2315,-1.14437 3.27215,-1.41488 0.71226,-0.18516 1.32483,-0.22437 2.14871,-0.28215 0.69043,-0.0484 1.36676,0.21206 1.8464,0.71106 0.32943,0.34285 0.75565,0.59151 1.21594,0.71054 l 3.79926,0.8904 c 11.9244,2.79392 22.17417,7.21969 30.41314,13.06018 0.66106,0.4686 1.28876,0.88501 1.83089,1.21748 0.27945,0.1714 0.49202,0.29694 0.75499,0.43357 0.15393,0.08 0.2173,0.11362 0.41547,0.19431 0.56743,0.23106 0.38563,0.18669 0.3292,0.16846 -0.0564,-0.0182 0.1138,0.0418 0.70125,0.0558 0.69575,0.0161 2.2011,-0.85505 2.374,-1.03817 0.53181,-0.56322 0.63717,-0.8042 0.97359,-1.43142 0.58108,-1.08344 1.20107,-2.51616 2.22623,-4.95215 2.72365,-6.47211 5.78286,-11.283 11.1466,-17.47285 5.57279,-6.43107 10.47237,-9.76841 16.26772,-11.36467 1.89495,-0.52197 2.80393,-0.6146 7.31378,-0.62839 2.33531,-0.007 3.50014,-0.0246 4.50516,0.0517 1.00502,0.0763 1.76488,0.28027 2.74865,0.5638 4.0971,1.18078 7.70917,3.50147 10.11153,6.40786 h 0.003 l 1.25161,1.51463 c 0.67209,0.81262 1.87163,1.14089 2.8639,0.78394 0.99198,-0.35685 1.70751,-1.37359 1.70841,-2.42777 v -2.42673 -2.40913 c -0.003,-0.40244 -0.10212,-0.80383 -0.28627,-1.16168 -0.34648,-0.67369 -0.34462,-1.47363 0.005,-2.14562 0.16232,-0.31205 0.25612,-0.65788 0.28112,-1.00872 v -3.05977 -2.914547 c -0.0303,-0.134805 -0.0617,-0.269663 -0.11316,-0.397907 -0.18756,-0.467413 -0.21892,-0.982953 -0.0894,-1.469681 0.0613,-0.230267 0.12308,-0.53504 0.0982,-0.380338 0.0449,-0.27903 0.0474,-0.355944 0.0641,-0.600472 0.0279,-0.40902 0.0403,-0.856668 0.0403,-1.382342 v -1.707409 c -0.0877,-2.16715 -3.31076,-0.605155 -4.93612,-1.365277 -3.29417,-1.540721 -4.80031,-3.862678 -7.61815,-4.444682 -4.57874,-0.945727 -13.44279,-1.63748 -18.2614,-1.030949 -9.85505,1.240446 -17.88698,5.29127 -28.29285,14.090597 -1.58568,1.340877 -2.85779,2.296817 -3.76256,2.939887 -1.1326,0.80479 -2.71309,0.44826 -3.39051,-0.76483 0.15357,0.27498 0.11621,0.24413 -0.0827,-0.13229 -0.0627,-0.11877 -0.0497,-0.15137 -0.0868,-0.26355 -0.2069,-0.48191 -0.24548,-1.01944 -0.10956,-1.525985 0.18589,-0.650372 0.43804,-1.469628 0.72244,-2.314072 1.6876,-5.011208 2.04764,-8.031506 1.37666,-11.043258 -0.3555,-1.595835 -0.9556,-3.193018 -1.63762,-4.671563 -0.34102,-0.739219 -0.65976,-1.358556 -1.04386,-1.961118 -0.20791,-0.326152 -0.34782,-0.534802 -0.6346,-0.855742 -0.67104,-0.751073 -0.17124,-0.568748 -1.43917,-0.980308 -0.037,-0.01191 -0.59831,-0.134964 -1.1276,-0.09612 -0.5293,0.03887 -1.04252,0.188198 -1.48104,0.532792 0.21268,-0.167058 0.22667,-0.166026 -0.13954,0.157083 -0.55845,0.492654 -0.94033,7.458075 -0.42571,11.782636 z m -0.1292,32.767009 v 0 c 0.4159,0.0417 1.08821,0.41367 1.38597,0.57824 1.94117,1.51159 0.52573,4.60989 -1.88772,4.13205 -0.12055,-0.0276 -0.26509,-0.0627 -0.46046,-0.11316 -2.59122,-0.70482 -2.13855,-4.50916 0.5457,-4.58629 0.0442,-0.0185 3e-5,-0.0524 0.41601,-0.0108 z" /><path
     id="path274"
     style="stroke-width:0.452054"
     d="m 333.40633,93.351742 c -0.15756,0 -0.84484,-0.65606 -0.75647,-0.752289 -0.64944,0.352107 0.71612,1.448329 0.56888,1.840574 -0.34501,1.587791 -0.182,0.373512 -0.21135,1.550299 1.4e-4,-0.0053 -1.25394,0.478473 -1.00068,1.103471 0.43601,1.09347 -0.15671,1.477328 -0.70162,2.520818 l 1.67749,3.740125 -0.24959,3.08612 c -0.01,0.12883 -1.12117,9.45447 -1.0351,9.55083 -1.94447,13.90068 8.24876,18.42463 10.33018,32.82177 1.05778,8.52562 0.3578,25.05348 -1.40044,32.61712 -1.00698,4.33197 -4.68423,15.38589 -7.63775,22.9898 -0.85744,2.20742 -1.19034,2.91751 -1.39891,4.01373 -0.0766,0.40286 -2.11632,0.62998 -1.98599,0.94811 0.10687,0.26085 2.3495,0.53271 2.57668,0.70088 1.47886,1.21404 0.17973,1.29307 -0.707,2.98855 l 0.4019,2.59443 c 0.0101,0.10792 1.43352,1.46318 1.50884,1.5411 1.15168,1.19163 1.43894,1.51681 0.75478,3.02622 -0.59341,1.3088 -1.07873,2.43952 -1.35649,3.20755 -0.80473,2.22506 -1.01407,0.69879 -0.40878,2.48202 l -7.64551,2.59467 c 0.009,0.0228 0.006,0.0194 0.0289,0.0729 0.0246,0.0569 0.0542,0.13048 0.14626,0.30179 0.092,0.17131 -0.16687,0.34669 1.13946,1.32085 0.1633,0.12177 0.64243,0.39124 0.64233,0.39119 -8e-5,-5e-5 1.06463,0.34728 1.06455,0.34727 -1.1e-4,-2e-5 1.51161,-0.0186 1.51154,-0.0186 -8e-5,2e-5 1.47076,-0.62068 1.47071,-0.62063 -8e-5,5e-5 0.92609,-0.87496 0.92604,-0.87488 -8e-5,8e-5 0.45479,-0.7458 0.45474,-0.74569 -1.1e-4,2.3e-4 0.26307,-0.71437 0.30644,-0.93431 0.17343,-0.87976 0.0743,-0.96442 0.062,-1.11156 -0.0246,-0.2943 -0.0406,-0.32223 -0.0481,-0.36277 -0.0148,-0.0811 -0.009,-0.0479 0,-0.005 0.0373,0.17103 0.1514,0.64317 0.23464,1.24178 v 5.3e-4 c 0.10908,0.78478 0.21399,1.72673 0.28937,2.65359 v 5.3e-4 l -1.16732,3.96825 c 0.0161,0.059 1.48879,0.67289 1.52562,0.72174 0.86111,1.14247 -1.16533,1.57631 -1.71265,2.89814 -0.20926,0.50528 1.76845,0.59368 1.78689,0.54625 v 5.3e-4 c -0.41799,1.07464 -0.61105,1.67019 -0.71882,2.37453 -0.0789,0.51547 -0.0265,1.12367 0.19378,1.48002 0.41056,0.66432 0.31478,1.64041 0.71287,1.9205 -0.32798,-0.23076 -0.14764,-0.0817 0.15015,-0.0326 0.29781,0.0491 0.82553,-1.49053 0.49646,-1.38701 0.26718,-0.084 -0.17967,-0.21039 -0.0919,-0.24772 0.0718,-0.11931 0.12097,-0.20903 0.39325,-0.59376 0.62603,-0.88452 1.34422,-2.18053 2.86703,-4.90358 6.71277,-12.00359 14.23707,-28.32266 17.17931,-37.29643 4.44495,-13.55701 6.1804,-23.5916 6.17326,-35.71409 -0.0167,-27.79035 -6.72544,-50.41882 -18.95128,-63.29225 -1.42891,-1.504554 -3.16212,-3.106183 -4.66225,-4.362028 -0.75444,-0.631587 -1.41187,-1.146624 -1.98128,-1.54252 -0.31158,-0.216641 -0.47982,-0.32684 -0.73536,-0.46355 -0.25474,-0.136287 -0.25305,-0.141949 -0.35139,-0.198438 -0.0776,-0.0061 -0.0786,-1.128977 -0.26993,-1.128977 z" /><text
     xml:space="preserve"
     style="font-size:46.8289px;line-height:1.25;font-family:'UVF Aphrodite Pro';-inkscape-font-specification:'UVF Aphrodite Pro';stroke-width:0.975601"
     x="-57.918697"
     y="287.89359"
     id="text1"
     transform="rotate(-32.279442)"><tspan
       id="tspan1"
       style="stroke:#000000;stroke-width:0.975601"
       x="-57.918697"
       y="287.89359">J</tspan></text><text
     xml:space="preserve"
     style="font-size:46.8289px;line-height:1.25;font-family:'UVF Aphrodite Pro';-inkscape-font-specification:'UVF Aphrodite Pro';stroke-width:0.975601"
     x="91.148048"
     y="318.21564"
     id="text1-5"
     transform="rotate(-32.279442)"><tspan
       id="tspan1-3"
       style="stroke:#000000;stroke-width:0.975601"
       x="91.148048"
       y="318.21564">M</tspan></text></svg>
